HIERARCHY
ROOT Hip
{
    OFFSET 0.0 0.0 0.0
    CHANNELS 6 Xposition Yposition Zposition Zrotation Xrotation Yrotation
    JOINT RightHip
    {
        OFFSET -0.10391198098659515 0.0 0.0
        CHANNELS 3 Zrotation Xrotation Yrotation
        JOINT RightKnee
        {
            OFFSET 0.0 0.0 -0.3754957318305969
            CHANNELS 3 Zrotation Xrotation Yrotation
            JOINT RightAnkle
            {
                OFFSET 0.0 0.0 -0.3515896201133728
                CHANNELS 3 Zrotation Xrotation Yrotation
                End Site
                {
                    OFFSET 0.0 -0.14063584804534912 0.0
                }
            }
        }
    }
    JOINT LeftHip
    {
        OFFSET 0.10391198098659515 0.0 0.0
        CHANNELS 3 Zrotation Xrotation Yrotation
        JOINT LeftKnee
        {
            OFFSET 0.0 0.0 -0.3754957318305969
            CHANNELS 3 Zrotation Xrotation Yrotation
            JOINT LeftAnkle
            {
                OFFSET 0.0 0.0 -0.3515896201133728
                CHANNELS 3 Zrotation Xrotation Yrotation
                End Site
                {
                    OFFSET 0.0 -0.14063584804534912 0.0
                }
            }
        }
    }
    JOINT Spine
    {
        OFFSET 0.0 0.0 0.22984717786312103
        CHANNELS 3 Zrotation Xrotation Yrotation
        JOINT Thorax
        {
            OFFSET 0.0 0.0 0.2518776059150696
            CHANNELS 3 Zrotation Xrotation Yrotation
            JOINT Neck
            {
                OFFSET 0.0 0.0 0.12475112080574036
                CHANNELS 3 Zrotation Xrotation Yrotation
                End Site
                {
                    OFFSET 0.0 0.0 0.04990044981241226
                }
            }
            JOINT LeftShoulder
            {
                OFFSET 0.13254651427268982 0.0 0.0
                CHANNELS 3 Zrotation Xrotation Yrotation
                JOINT LeftElbow
                {
                    OFFSET 0.2812025845050812 0.0 0.0
                    CHANNELS 3 Zrotation Xrotation Yrotation
                    JOINT LeftWrist
                    {
                        OFFSET 0.2280602604150772 0.0 0.0
                        CHANNELS 3 Zrotation Xrotation Yrotation
                        End Site
                        {
                            OFFSET 0.09122410416603088 0.0 0.0
                        }
                    }
                }
            }
            JOINT RightShoulder
            {
                OFFSET -0.13254651427268982 0.0 0.0
                CHANNELS 3 Zrotation Xrotation Yrotation
                JOINT RightElbow
                {
                    OFFSET -0.2812025845050812 0.0 0.0
                    CHANNELS 3 Zrotation Xrotation Yrotation
                    JOINT RightWrist
                    {
                        OFFSET -0.2280602604150772 0.0 0.0
                        CHANNELS 3 Zrotation Xrotation Yrotation
                        End Site
                        {
                            OFFSET -0.09122410416603088 0.0 0.0
                        }
                    }
                }
            }
        }
    }
}
MOTION
Frames: 11
Frame Time: 0.03333333333333333
9.918949217535555e-07 1.7965254528462538e-06 -3.703339461935684e-05 20.878514542022263 -8.145634724446992 -176.11313103364682 -0.8495053758877882 -13.667312340992419 -1.635569927486399 0.6295479102957473 17.90027125627699 -3.560007440343043 -9.442271710594815e-16 6.551892161168204e-33 -7.951386703658792e-16 -0.726773032997171 -11.9171964032193 -9.988995838174894 -1.6625862266516895 14.359872492264808 3.452285734629074 -3.9259971849315285e-15 1.5902773407317584e-15 -7.951386703658791e-16 0.24562843447547544 4.050201140659821 -0.9697503298806263 -1.6567022831903548 9.601503847142097e-07 3.3831991418129674e-07 0.2892148891731599 -9.681189719551968 -6.435025568702417 -34.424050581695845 4.842668138729395 78.73005399383375 -26.177894233326235 5.448442533069095e-06 -2.862019964536832e-07 0.0 0.0 1.5902773407317582e-15 12.470110567980951 7.269647815022221 -74.97910642675185 26.885733780040024 -9.73430513498683e-07 2.0135172188777314e-06 -7.951386703658791e-16 -2.9569723832640713e-32 4.261446311492133e-15
1.2195487215649337e-06 1.809227228477539e-06 -3.647943231044337e-05 21.258888716651 -8.067262744487472 -175.90550557351548 -0.8532949900042744 -13.458791728813074 -1.5065103834045674 0.684984003040624 17.683935002979577 -3.5699043150444996 0.0 0.0 0.0 -0.7184631138467882 -11.554007117044547 -10.259603568928355 -1.6918537067000294 14.17304224028243 3.115305792051109 -1.0436195048552165e-15 1.5902773407317584e-15 -1.1927080055488188e-15 0.2572938032718638 4.156459851491475 -1.241735226475625 -1.6153444309452707 1.0807969734961991e-06 2.1138634911585667e-07 0.4343744827988272 -8.89919578917509 -6.290759378484118 -34.5348464699152 4.924226194930252 78.63407031125908 -26.519837548951102 -2.9796053160156333e-06 -4.633378811980665e-06 3.1805546814635164e-15 -3.1805546814635168e-15 -9.54166404439055e-15 12.474600570421678 6.8140323305449035 -74.23353342801931 27.374532986966127 3.6854189849855154e-06 -3.780396948364842e-07 0.0 0.0 -2.2114794269551013e-15
1.4067845768295228e-06 1.6099306776595768e-06 -3.57076532964129e-05 21.425938054358323 -7.992745514351562 -175.91154149655196 -0.8565342264992403 -13.470254539601 -0.9771235312857246 0.8545878280216397 17.63304748348565 -4.144255525240617 -2.4848083448933726e-15 1.5902773407317584e-15 -3.9756933518293955e-16 -0.7089263588462025 -11.377282803545114 -10.291246225154923 -1.707569872855298 14.25019996874171 3.0199413988001496 -1.1927080055488188e-15 8.276074308844047e-33 -7.951386703658792e-16 0.2752866871606009 4.433902165932456 -1.4257677919551062 -1.4795742351851975 -1.0469411593549394e-06 -1.3896849350975278e-07 0.8046568511220852 -8.630340759387824 -5.65361484090608 -35.144359609071614 4.963980243284536 78.40781404244336 -26.746057894742734 -5.341200503325249e-08 -3.830050877674309e-06 -6.3611093629270335e-15 3.1805546814635164e-15 6.3611093629270335e-15 13.309105649760612 6.602529433548759 -73.45024797619526 28.062730779194208 -8.095072457483823e-07 -3.6430797150684874e-06 1.7241821476758433e-32 -7.951386703658792e-16 2.4848083448933726e-15
1.106349373003468e-06 1.501136921433499e-06 -3.604773519327864e-05 21.838882145884682 -8.213631979966712 -176.04627231412059 -0.7747747895436325 -13.17793498850304 -0.5416648979611249 0.9201883160395233 17.90817016500987 -4.588138236708071 8.94531004161614e-16 1.5902773407317582e-15 -3.9756933518293955e-16 -0.6351629666111415 -11.033725498332087 -10.003003189220466 -1.6187577413972023 13.563903407266443 2.797532346300502 1.5902773407317584e-15 -1.1034765745125397e-32 -7.951386703658792e-16 0.25609939056523096 4.4592255391379085 -1.122620659603329 -1.364500481876742 -7.991179924847609e-07 -1.8187599596605445e-08 -0.5231716667020649 -9.121506637233221 -5.721261961582434 -35.22266802155 5.001185635347313 78.18799257183524 -26.67563148747888 8.43665755393178e-06 4.61688811799885e-07 -3.1805546814635164e-15 -3.1805546814635164e-15 -1.5902773407317584e-15 12.425180296084699 6.101334633752844 -73.71895649091269 28.143177739157192 -9.927763488305827e-07 -2.1778328120591218e-06 -5.448415586655664e-32 7.951386703658792e-16 7.851994369863057e-15
1.579061063239351e-06 1.6324129319400527e-06 -3.6669200198957697e-05 22.107030921814317 -8.471196199039676 -176.27099194134888 -0.7045839651093692 -13.578246829487355 -0.050609829360313045 0.9773227146818186 18.364477048186384 -5.423579940287061 2.9817700138720465e-16 -1.034509288605506e-33 -3.9756933518293955e-16 -0.5785423733025193 -11.40289308094155 -9.764162296526317 -1.6451872796910585 13.47481256641951 3.2584563471270913 8.945310041616142e-16 0.0 0.0 0.22447024493322212 4.435994673391643 -1.1077733152067328 -1.5651248021492388 9.415260038568593e-07 -9.589628994094408e-08 -1.3248571193202716 -9.987492250437159 -5.846401288270449 -36.39591037208322 5.541007613965234 77.83319622123132 -27.114153871876645 5.0552934999725005e-06 1.7387401395575488e-06 6.3611093629270335e-15 -3.1805546814635168e-15 -6.3611093629270335e-15 11.617530618315984 5.787729898889658 -73.45271138699336 28.40882887772099 1.634171047994361e-06 1.476365789171212e-06 0.0 0.0 -5.1187051904803484e-15
1.7650017980486155e-06 1.7449228835175745e-06 -3.716278661158867e-05 22.285031347945466 -8.813285611692798 -176.48076217078204 -0.685240428609847 -14.216455765856816 0.27508929063334525 1.0642302950943718 19.172463073971368 -5.591562861499489 -6.957463365701443e-16 -2.4138550067461805e-33 3.975693351829396e-16 -0.5663131232040135 -12.026674208498292 -9.507336924747896 -1.6556720014815574 13.649909715090844 3.3697084678445592 -8.945310041616142e-16 -3.103527865816518e-33 3.975693351829396e-16 0.20652637532817486 4.40344609645506 -1.1099123922848506 -1.8337037872549267 -9.8007941161379e-08 -1.423227581766499e-07 -1.4560208656364682 -10.588793831547802 -5.908422595143806 -38.50424749727386 6.148137311243598 77.67859348621433 -28.56901188098948 4.817722642199583e-06 -1.2624700023481615e-06 0.0 0.0 0.0 10.06566495964366 5.4254365410038705 -73.3321720691847 29.17960537861535 -1.7102455628068351e-06 -5.852247478510186e-07 0.0 0.0 8.013506912281126e-15
1.5064797480590641e-06 1.7378326901962282e-06 -3.6838024243479595e-05 22.889898927904685 -8.895938531892423 -176.42956941091933 -0.692735994221536 -15.056341301203712 0.5516653881382229 1.1723683718206979 20.033092287398578 -5.686306362945514 9.93923337957349e-17 3.4483642953516864e-34 3.975693351829396e-16 -0.563362301116373 -12.552746617165106 -9.598364352718534 -1.8159068987483686 14.467033458625112 3.6368998755367783 2.5345045117912397e-15 8.793328953146801e-33 3.9756933518293955e-16 0.20464031226480092 4.582622870378344 -1.4301784173774001 -1.8027899286277984 3.1929596647064765e-07 -1.6540817558654727e-08 -0.5500005370224572 -10.611174101783003 -5.427681923922306 -38.38903364504324 6.1405979203234 77.50676117532349 -29.953814809267158 2.7939620155856197e-06 -2.010594210541691e-06 6.3611093629270335e-15 3.1805546814635164e-15 -6.3611093629270335e-15 10.449446786888124 5.064277150219542 -72.24145757794996 30.113088675114255 -1.3004494776505792e-06 5.13601704770952e-07 0.0 0.0 5.168401357378215e-15
1.1864722182508558e-06 1.8236931964565883e-06 -3.700548768392764e-05 23.56071408211472 -9.042411908812603 -176.50175746376368 -0.7123555172327033 -15.025846578434903 0.9946932960982344 1.3482079450612243 19.813941859253397 -6.080777349605247 -1.0933156717530838e-15 1.5902773407317584e-15 3.975693351829396e-16 -0.5610239213691574 -12.131349179951359 -9.309121202574907 -1.6672102018428547 14.039908823913898 3.3267939525610197 4.572047354603805e-15 -1.5862475758617757e-32 -3.975693351829396e-16 0.21227222179330602 4.61040821361311 -1.3632061241027218 -1.7580615486191296 -1.0446092461401757e-06 -4.1807956386248177e-07 0.1261446405123938 -10.974409307720409 -5.457946173122879 -39.83104435274019 6.0697818111484105 77.31145649398314 -30.84696683596091 7.501438456788589e-07 3.2776896319682054e-06 6.361109362927033e-15 0.0 0.0 9.44312400201525 4.904557548605934 -71.91339880578792 31.078374833763043 1.3569915309317403e-06 -5.363769531821311e-06 0.0 0.0 -2.037542842812565e-15
1.1078336683567613e-06 2.0456373022170737e-06 -3.6787350836675614e-05 24.1573616454545 -9.234503663897883 -176.62851583777012 -0.6393630181129828 -14.99841710067581 1.6555751256653541 1.4744540146277694 19.651856998693336 -6.379356797193538 -1.0933156717530838e-15 -7.58640144977371e-33 7.951386703658792e-16 -0.5112938676637317 -12.300406700880984 -8.794964238636565 -1.6367519919997717 14.303280647384332 2.9302219425766465 2.981770013872047e-16 0.0 0.0 0.19927624963212118 4.814331802153315 -1.5334274598309368 -1.770338226539215 -6.758795026059312e-07 -2.016366162082651e-07 1.0822816232139523 -11.039114117416723 -4.715661429002302 -41.39455115486665 6.381036261943275 77.29738602078343 -32.9358858298857 3.0282185134797673e-06 -1.0720382976216535e-06 3.1805546814635164e-15 8.827812596100317e-32 3.1805546814635164e-15 9.974524258064125 4.552821877442378 -71.02722521906308 31.461220511573817 7.865878902465346e-08 5.611863228178389e-06 0.0 0.0 -7.752602036067322e-15
7.352355169132352e-07 2.3079060156305786e-06 -3.665737312985584e-05 24.700503977313055 -9.15995820698935 -176.6656887882194 -0.6312391905306921 -14.943177866799015 2.2709647397089774 1.685614718575181 19.628090158036255 -6.58889247772242 9.939233379573488e-16 -1.5902773407317582e-15 3.9756933518293955e-16 -0.4987315859260729 -12.102578214236809 -8.357990910984325 -1.5503111644777268 14.48749130297958 2.6457585717267627 2.981770013872047e-16 1.034509288605506e-33 3.975693351829396e-16 0.20361003372445116 4.960773440264656 -1.9374858527533008 -1.8629713400093577 -5.123726013930601e-07 6.770368695312684e-08 2.492689396028479 -10.403994897256235 -4.166235354805707 -43.928053877405034 7.3836614725005925 76.57379114919256 -37.30134194357606 -1.0643819855914652e-06 3.1949663344952017e-06 0.0 6.3611093629270335e-15 0.0 10.497553200078503 4.059278749947282 -69.76770543854539 32.51597537991615 2.980316818513773e-06 9.412407281624498e-06 1.5902773407317584e-15 2.827658722188383e-32 2.0375428428125655e-15
4.7251887735910714e-07 2.4564924387959763e-06 -3.6188655940350145e-05 25.711535582338577 -9.041948882462046 -176.25407961328713 -0.6573513049394111 -15.95489706554696 2.0168832357877817 1.650871492553654 20.50447503601748 -6.521728703257242 -9.93923337957349e-17 -1.5902773407317584e-15 -1.3793457181406746e-33 -0.5164964604162705 -12.864263477705938 -8.875265358395506 -1.8885899448870787 16.004856112952414 2.516796611785627 4.969616689786745e-16 -1.5902773407317584e-15 6.896728590703373e-33 0.2081923745413993 5.215833938490643 -2.7529287464064436 -1.6776832077511854 1.4208509100273052e-07 -4.2896583072699104e-07 3.6603848841606816 -10.447111768370915 -3.554515664024339 -45.708703371288735 7.793974815991462 76.17067702667207 -41.23649695045838 -1.0857679779091734e-06 3.668689511534666e-06 -6.361109362927033e-15 -6.361109362927033e-15 -3.531125038440127e-31 11.315963012247297 3.5554359039279633 -68.17264874784264 33.533534368647345 3.6112707631425196e-06 -6.8250043181261135e-06 0.0 0.0 -1.1927080055488188e-15
